# xmcd
#
# Track frame offsets:
#	150
#	17961
#	34626
#	51578
#	68696
#	85768
#	100774
#	119617
#	133440
#	146757
#	162727
#	176290
#	191852
#	206898
#	219729
#	238648
#	251009
#	266507
#	284089
#	299349
#
# Disc length: 4252 seconds
#
# Revision: 1
# Processed by: cddbd v1.5.2PL0 Copyright (c) Steve Scherf et al.
# Submitted via: audiograbber 1.83.01
#
DISCID=4c109a14
DTITLE=COUNTRY IS GROOT - DISK 1
DYEAR=1900
DGENRE=Country
TTITLE0=COLESKE - THE RIVER
TTITLE1=THEUNS JORDAAN - THE GAMBLER
TTITLE2=EDER and LIANIE MAY - LAY DOWN BESIDE ME
TTITLE3=RUDI and CORLEA - BROKEN SOUVENIRS
TTITLE4=JAY - KISS A GIRL
TTITLE5=LIANIE MAY - THE ROSE
TTITLE6=THEUNS JORDAAN and BOBBY VAN JAARSVELD - ME AND BOBBY MCGEE
TTITLE7=JUANITA DU PLESSIS - I DON'T WANNA PLAY HOUSE
TTITLE8=BOK VAN BLERK - I WON'T BACK DOWN
TTITLE9=EDEN - WHAT HURTS THE MOST
TTITLE10=KAREN FERREIRA - NO NO NEVER
TTITLE11=STEVE HOFMEYER - GYPSY WOMAN
TTITLE12=ALAN LADD - IT'S GOOD TO SEE YOU
TTITLE13=DOZI - TULSA TIME
TTITLE14=REANA - I HOPE YOU DANCE
TTITLE15=COLESKE - MRS ROBINSON
TTITLE16=GERHARD STEYN - THE PAINTER
TTITLE17=CHEREE - LOVE STORY
TTITLE18=HUGO - HE'LL HAVE TO GO
TTITLE19=ANKE - HEARTACHE TONIGHT
EXTD=
EXTT0=
EXTT1=
EXTT2=
EXTT3=
EXTT4=
EXTT5=
EXTT6=
EXTT7=
EXTT8=
EXTT9=
EXTT10=
EXTT11=
EXTT12=
EXTT13=
EXTT14=
EXTT15=
EXTT16=
EXTT17=
EXTT18=
EXTT19=
PLAYORDER=
